<?xml version="1.0" standalone="no"?>
<!DOCTYPE svg PUBLIC "-//W3C//DTD SVG 20010904//EN"
 "http://www.w3.org/TR/2001/REC-SVG-20010904/DTD/svg10.dtd">
<svg version="1.0" xmlns="http://www.w3.org/2000/svg"
 width="112.000000pt" height="156.000000pt" viewBox="0 0 112.000000 156.000000"
 preserveAspectRatio="xMidYMid meet">

<g transform="translate(0.000000,156.000000) scale(0.100000,-0.100000)"
fill="#000000" stroke="none">
<path d="M480 1392 c-173 -45 -310 -194 -341 -370 -8 -47 -8 -70 0 -91 7 -15
103 -118 215 -229 195 -195 204 -202 242 -202 22 0 49 7 61 15 31 21 46 75 33
111 -6 16 -89 108 -185 204 l-175 175 24 50 c24 52 73 103 129 131 51 27 164
30 218 7 98 -44 153 -120 169 -234 11 -80 41 -114 100 -114 30 0 47 7 68 28
24 25 27 34 26 95 -3 120 -72 258 -166 332 -124 99 -270 131 -418 92z"/>
<path d="M537 1040 c-31 -25 -44 -78 -27 -111 7 -13 89 -101 182 -195 192
-193 189 -186 124 -274 -65 -89 -198 -132 -300 -97 -104 35 -167 115 -186 232
-13 80 -35 111 -86 121 -39 7 -87 -17 -103 -53 -23 -50 -5 -153 42 -250 85
-176 294 -284 485 -252 194 33 345 176 388 368 13 57 14 77 5 100 -7 15 -103
118 -215 229 -196 196 -203 202 -243 202 -25 0 -50 -7 -66 -20z"/>
</g>
</svg>
