<?xml version="1.0" standalone="no"?>
<!DOCTYPE svg PUBLIC "-//W3C//DTD SVG 20010904//EN"
 "http://www.w3.org/TR/2001/REC-SVG-20010904/DTD/svg10.dtd">
<svg version="1.0" xmlns="http://www.w3.org/2000/svg"
 width="1522.000000pt" height="968.000000pt" viewBox="0 0 1522.000000 968.000000"
 preserveAspectRatio="xMidYMid meet">

<g transform="translate(0.000000,968.000000) scale(0.100000,-0.100000)"
fill="#000000" stroke="none">
<path d="M3760 5662 c-173 -45 -310 -194 -341 -370 -8 -47 -8 -70 0 -91 7 -15
103 -118 215 -229 195 -195 204 -202 242 -202 22 0 49 7 61 15 31 21 46 75 33
111 -6 16 -89 108 -185 204 l-175 175 24 50 c24 52 73 103 129 131 51 27 164
30 218 7 98 -44 153 -120 169 -234 11 -80 41 -114 100 -114 30 0 47 7 68 28
25 25 27 34 25 95 -3 121 -71 259 -165 332 -124 99 -270 131 -418 92z"/>
<path d="M4488 5664 c-15 -8 -32 -23 -38 -34 -6 -12 -10 -214 -10 -575 0 -618
-1 -603 64 -625 29 -9 41 -8 70 5 19 9 38 24 43 33 4 9 10 123 13 252 l5 235
29 53 c36 64 92 107 166 129 128 37 270 -37 316 -164 9 -27 13 -100 14 -253 0
-240 4 -254 62 -283 33 -16 40 -17 72 -3 60 25 66 50 66 263 0 225 -10 295
-54 389 -43 92 -114 162 -211 210 -65 32 -86 37 -168 42 -100 5 -180 -11 -245
-49 -18 -10 -37 -19 -43 -19 -5 0 -9 70 -9 171 0 98 -4 179 -10 190 -12 22
-61 49 -87 49 -10 -1 -30 -7 -45 -16z"/>
<path d="M10105 5671 c-11 -5 -29 -19 -40 -31 -19 -21 -20 -38 -23 -571 -3
-615 -4 -607 63 -635 33 -14 40 -13 73 3 59 29 62 43 62 288 0 192 3 225 19
261 47 103 133 158 246 158 79 0 127 -20 184 -76 69 -67 75 -96 81 -353 3
-126 9 -238 14 -247 4 -9 23 -24 42 -33 28 -13 41 -14 69 -5 62 21 65 33 65
287 0 125 -5 247 -10 270 -30 129 -131 253 -255 314 -68 33 -74 34 -190 34
-117 0 -122 -1 -192 -36 l-73 -35 0 174 0 174 -34 34 c-34 34 -61 41 -101 25z"/>
<path d="M5835 5340 c-160 -28 -280 -122 -353 -276 -25 -54 -27 -69 -27 -179
0 -110 2 -125 27 -179 74 -157 195 -251 357 -276 132 -20 279 24 374 113 39
36 47 50 47 79 0 41 -30 85 -68 99 -31 12 -82 -3 -108 -32 -28 -32 -90 -59
-144 -66 -101 -12 -212 42 -258 125 l-23 42 323 0 c354 0 353 0 378 59 29 71
-28 251 -109 343 -100 113 -269 173 -416 148z m202 -226 c44 -27 113 -104 113
-125 0 -5 -102 -9 -246 -9 l-245 0 23 42 c24 43 86 94 141 115 18 7 61 11 100
9 53 -3 77 -10 114 -32z"/>
<path d="M6840 5339 c-163 -26 -310 -156 -360 -318 -68 -218 38 -456 248 -554
56 -26 82 -32 159 -35 102 -5 162 6 237 44 27 14 50 23 52 21 10 -10 -50 -108
-89 -144 -46 -42 -84 -57 -169 -68 -137 -17 -124 -195 14 -195 19 0 60 7 93
15 175 46 304 179 341 354 19 90 20 793 1 831 -7 14 -29 33 -50 43 -36 18 -38
18 -74 0 -31 -15 -42 -27 -60 -61 -1 -2 -30 10 -66 27 -35 17 -95 35 -133 41
-77 11 -69 11 -144 -1z m196 -217 c44 -22 93 -73 121 -125 13 -23 18 -55 18
-112 0 -69 -4 -86 -27 -127 -126 -213 -435 -164 -489 77 -28 127 45 254 176
303 45 17 153 9 201 -16z"/>
<path d="M7523 5335 c-17 -7 -36 -22 -42 -34 -15 -27 -15 -805 0 -833 6 -11
26 -26 45 -34 29 -12 39 -12 68 0 64 27 66 36 66 276 0 255 7 288 80 360 50
51 117 80 183 80 103 0 137 146 43 185 -49 21 -154 4 -238 -37 -59 -30 -69
-32 -73 -18 -8 24 -46 56 -75 63 -14 3 -39 0 -57 -8z"/>
<path d="M8400 5336 c-183 -34 -325 -172 -366 -354 -14 -63 -15 -88 -5 -154
44 -314 365 -491 648 -359 l66 31 31 -36 c24 -28 39 -36 67 -37 49 -1 86 25
98 70 7 23 11 175 11 388 0 213 -4 365 -11 388 -12 45 -49 71 -98 70 -28 -1
-43 -9 -68 -38 l-31 -36 -49 24 c-98 49 -190 63 -293 43z m215 -220 c79 -47
135 -145 135 -239 0 -145 -140 -268 -290 -254 -132 12 -227 109 -238 244 -10
125 65 234 188 274 50 17 155 4 205 -25z"/>
<path d="M9093 5335 c-17 -7 -36 -22 -42 -34 -8 -13 -11 -201 -11 -589 l0
-569 23 -21 c30 -28 71 -37 108 -22 52 22 59 50 59 238 l0 168 72 -35 c70 -35
74 -36 193 -36 120 0 122 0 196 37 95 47 177 130 221 225 44 92 51 217 19 321
-52 173 -193 295 -371 322 -102 15 -257 -17 -310 -65 -17 -15 -19 -15 -24 3
-9 26 -46 58 -76 65 -14 3 -39 0 -57 -8z m531 -219 c120 -70 168 -220 109
-343 -40 -85 -146 -153 -237 -153 -107 0 -217 79 -251 179 -45 137 26 287 161
337 60 22 162 13 218 -20z"/>
<path d="M11123 5343 c-12 -2 -34 -18 -48 -34 l-25 -31 0 -207 c0 -240 7 -290
55 -387 65 -133 199 -231 346 -254 86 -13 207 7 279 46 27 15 52 25 55 22 12
-11 -51 -111 -88 -142 -58 -46 -75 -54 -148 -65 -74 -12 -110 -35 -123 -78
-10 -37 7 -77 46 -106 26 -19 34 -20 109 -10 198 26 361 181 399 378 7 40 10
184 8 437 l-3 378 -26 26 c-47 47 -136 29 -159 -32 -6 -14 -10 -119 -10 -233
0 -230 -6 -263 -60 -331 -43 -54 -138 -100 -205 -100 -76 0 -139 25 -194 79
-73 71 -81 105 -81 348 0 234 -7 264 -64 288 -20 8 -37 14 -38 14 -2 -1 -13
-4 -25 -6z"/>
<path d="M3817 5310 c-31 -25 -44 -78 -27 -111 7 -13 89 -101 182 -195 162
-163 170 -173 163 -202 -10 -48 -67 -115 -124 -146 -100 -54 -214 -45 -302 25
-54 43 -86 101 -99 184 -13 80 -35 111 -86 121 -39 7 -87 -17 -103 -53 -23
-50 -5 -153 42 -250 85 -176 294 -284 485 -252 194 33 345 176 388 368 13 57
14 77 5 100 -7 15 -103 118 -215 229 -196 196 -203 202 -243 202 -25 0 -50 -7
-66 -20z"/>
</g>
</svg>
